<?xml version="1.0" standalone="no"?>
<!DOCTYPE svg PUBLIC "-//W3C//DTD SVG 20010904//EN"
 "http://www.w3.org/TR/2001/REC-SVG-20010904/DTD/svg10.dtd">
<svg version="1.0" xmlns="http://www.w3.org/2000/svg"
 width="512.000000pt" height="512.000000pt" viewBox="0 0 512.000000 512.000000"
 preserveAspectRatio="xMidYMid meet">

<g transform="translate(0.000000,512.000000) scale(0.100000,-0.100000)"
fill="#000000" stroke="none">
<path d="M2118 5110 c-239 -43 -431 -166 -583 -374 l-20 -27 -50 36 c-140 102
-313 155 -499 155 -155 -1 -196 -19 -196 -87 0 -60 20 -68 188 -68 132 -1 155
-4 227 -28 97 -32 183 -82 265 -153 93 -82 123 -75 190 48 20 37 69 98 120
149 69 69 103 94 170 127 230 113 470 106 685 -20 65 -38 215 -176 215 -197 0
-5 -26 -15 -57 -21 -139 -27 -286 -95 -391 -181 -372 -301 -446 -922 -190
-1577 22 -56 38 -109 35 -116 -9 -22 -167 -135 -242 -173 -49 -25 -88 -37
-131 -41 -186 -15 -580 152 -874 368 -370 273 -612 596 -690 922 -25 104 -27
265 -4 357 35 142 125 289 227 372 69 57 77 67 77 105 0 35 -37 74 -70 74 -43
0 -172 -114 -246 -217 -56 -77 -109 -191 -136 -291 -31 -117 -30 -314 4 -442
72 -270 204 -492 433 -729 264 -272 627 -504 956 -612 74 -23 136 -44 138 -45
1 -2 -9 -27 -23 -57 -36 -77 -50 -137 -42 -179 13 -70 100 -119 239 -133 l57
-6 0 -112 c0 -62 -5 -132 -11 -157 -12 -54 -58 -160 -70 -160 -4 0 -31 21 -61
46 -118 101 -306 207 -449 253 -136 44 -316 45 -429 2 -148 -56 -229 -167
-230 -311 0 -83 24 -150 81 -221 45 -57 153 -124 260 -161 92 -32 97 -33 264
-32 142 1 183 4 249 22 96 26 205 78 269 127 26 20 51 33 57 30 19 -12 128
-184 219 -347 104 -185 123 -203 179 -174 63 33 58 57 -49 249 -103 183 -165
282 -216 345 l-35 43 41 82 c63 126 82 215 80 376 l-2 134 47 18 c96 36 176
120 176 184 0 42 -28 92 -88 157 -30 32 -53 60 -51 62 2 2 43 33 92 69 l87 66
26 -52 c67 -132 195 -314 317 -450 l81 -90 -24 -16 c-72 -47 -129 -103 -144
-141 -21 -53 -21 -57 10 -119 19 -38 43 -65 85 -96 33 -24 64 -45 69 -47 7 -2
4 -30 -9 -78 -40 -159 -36 -310 14 -454 14 -39 23 -71 22 -72 -6 -7 -382 -253
-436 -286 -100 -62 -270 -144 -357 -174 -64 -21 -97 -27 -174 -27 -191 1 -325
76 -403 229 -29 56 -96 62 -131 12 -22 -31 -20 -47 9 -103 105 -197 349 -313
599 -285 108 13 199 43 344 116 l123 61 107 -106 c322 -320 655 -461 1093
-461 404 0 787 151 971 383 43 55 49 96 18 127 -40 40 -76 27 -154 -53 -230
-236 -601 -343 -1023 -296 -294 33 -556 164 -790 396 -46 44 -83 85 -83 90 0
7 336 232 359 241 4 1 43 -32 87 -75 161 -157 353 -234 589 -236 182 -2 308
38 406 129 75 71 102 130 107 234 6 120 -19 184 -102 266 -97 96 -211 130
-401 121 -173 -9 -333 -59 -522 -163 -53 -29 -99 -51 -103 -49 -4 2 -15 33
-25 67 -24 84 -25 241 -1 323 l17 60 100 -3 c84 -3 105 -1 142 17 23 11 50 34
60 50 21 37 23 130 2 197 -22 72 -21 74 33 74 123 0 400 67 598 146 337 132
609 307 825 531 198 205 315 417 354 640 19 108 19 168 0 279 -30 168 -103
324 -205 434 -37 40 -53 50 -79 50 -35 0 -81 -37 -81 -65 0 -22 25 -68 46 -86
36 -29 113 -162 138 -237 52 -155 52 -315 1 -467 -45 -136 -126 -268 -243
-401 -252 -286 -701 -536 -1148 -640 -100 -23 -142 -28 -269 -28 -145 -1 -152
0 -202 27 -133 70 -342 320 -478 570 l-47 87 79 88 c371 409 591 878 610 1302
5 117 4 127 -16 152 -12 15 -31 28 -43 30 -19 3 -25 15 -40 93 -10 49 -17 92
-16 96 7 15 151 -25 233 -66 179 -88 303 -229 365 -415 39 -116 67 -125 188
-56 95 55 179 84 276 94 89 10 225 -1 285 -22 24 -9 56 -16 70 -16 64 0 95 84
49 128 -13 11 -61 31 -108 43 -69 19 -110 23 -215 22 -144 -1 -231 -18 -348
-71 l-66 -30 -24 52 c-118 258 -365 441 -657 490 -30 5 -41 15 -69 63 -39 65
-153 188 -220 238 -70 51 -198 111 -287 135 -88 24 -278 35 -356 20z m-68
-2756 c63 -63 64 -66 45 -81 -63 -48 -206 -76 -299 -59 -46 9 -46 22 2 111 37
70 37 70 92 81 90 19 91 19 160 -52z m793 -498 c37 -19 94 -40 127 -47 33 -6
62 -15 64 -18 2 -3 7 -24 11 -45 l8 -39 -77 6 c-85 6 -175 42 -235 92 l-34 29
34 28 c18 15 34 28 35 28 1 0 31 -15 67 -34z m-1608 -72 c126 -30 381 -177
464 -267 l23 -26 -62 -40 c-114 -74 -252 -111 -408 -111 -161 0 -292 42 -377
121 -60 55 -75 86 -75 151 0 153 193 230 435 172z m2511 -640 c101 -50 140
-129 120 -239 -15 -81 -123 -153 -261 -175 -192 -31 -436 46 -577 182 -74 71
-80 61 84 144 192 97 300 124 469 120 95 -2 113 -6 165 -32z"/>
</g>
</svg>
